<svg width="100" height="100" viewBox="0 0 100 100" fill="none" xmlns="http://www.w3.org/2000/svg">
<path d="M79 70.3297C79 86.7161 66.0162 100 50 100C33.9837 100 21 86.7161 21 70.3297C21 62.0852 23.2127 46.0363 28.5186 40.6593C28.5186 40.6593 32.8522 53.393 38.1853 52.7472C47.2601 51.6483 37.9383 30.696 42.4815 21.978C51.6442 4.3956 48.926 0 48.926 0C48.926 0 54.2963 -4.19197e-06 59.6667 18.6813C65.037 37.3626 66.111 43.956 72.5555 48.3516C73.2028 48.7931 75.7778 45.0549 75.7778 45.0549C75.7778 45.0549 79 51.6483 79 70.3297Z" fill="#0E7EBD"/>
</svg>
