<svg width="242" height="92" viewBox="0 0 242 92" fill="none" xmlns="http://www.w3.org/2000/svg">
<mask id="mask0_104_122" style="mask-type:alpha" maskUnits="userSpaceOnUse" x="25" y="13" width="191" height="73">
<path d="M37.4296 51.3422C37.4296 54.8065 38.2078 57.5931 39.7642 59.7018C41.3206 61.8105 43.6302 62.8648 46.6928 62.8648C47.697 62.8648 48.6258 62.8397 49.4794 62.7895C50.3329 62.6891 51.0358 62.5887 51.5881 62.4883V42.079C50.8852 41.6271 49.9563 41.2505 48.8016 40.9493C47.697 40.648 46.5673 40.4974 45.4126 40.4974C40.0906 40.4974 37.4296 44.1124 37.4296 51.3422ZM62.8094 70.17C61.8053 70.4713 60.6505 70.7725 59.3451 71.0738C58.0397 71.3248 56.659 71.5507 55.203 71.7516C53.7972 71.9524 52.3412 72.103 50.835 72.2034C49.3789 72.3541 47.9731 72.4294 46.6175 72.4294C43.354 72.4294 40.442 71.9524 37.8814 70.9985C35.3209 70.0445 33.1619 68.6889 31.4047 66.9316C29.6474 65.1242 28.2918 62.9653 27.3379 60.4549C26.4341 57.8943 25.9823 55.0325 25.9823 51.8694C25.9823 48.6561 26.3839 45.7692 27.1872 43.2086C27.9906 40.5978 29.1453 38.3887 30.6516 36.5812C32.1578 34.7738 33.9904 33.3931 36.1493 32.4391C38.3584 31.4852 40.8688 31.0082 43.6804 31.0082C45.2368 31.0082 46.6175 31.1588 47.8225 31.4601C49.0777 31.7613 50.3329 32.1881 51.5881 32.7404V14.8163L62.8094 13.0088V70.17ZM84.5379 71.4503H73.3165V31.8366H84.5379V71.4503ZM85.5923 20.3893C85.5923 22.4478 84.9145 24.0796 83.5589 25.2846C82.2535 26.4393 80.697 27.0167 78.8896 27.0167C77.0821 27.0167 75.5006 26.4393 74.145 25.2846C72.8396 24.0796 72.1869 22.4478 72.1869 20.3893C72.1869 18.3308 72.8396 16.7242 74.145 15.5694C75.5006 14.3644 77.0821 13.7619 78.8896 13.7619C80.697 13.7619 82.2535 14.3644 83.5589 15.5694C84.9145 16.7242 85.5923 18.3308 85.5923 20.3893ZM95.0862 33.1922C96.9941 32.6399 99.4542 32.1379 102.467 31.686C105.479 31.1839 108.642 30.9329 111.956 30.9329C115.32 30.9329 118.106 31.3848 120.315 32.2885C122.575 33.142 124.357 34.3721 125.663 35.9787C126.968 37.5854 127.897 39.4933 128.449 41.7024C129.001 43.9115 129.277 46.3717 129.277 49.0829V71.4503H118.056V50.4385C118.056 46.8236 117.579 44.263 116.625 42.7568C115.671 41.2505 113.889 40.4974 111.278 40.4974C110.475 40.4974 109.621 40.5476 108.718 40.648C107.814 40.6982 107.01 40.7736 106.308 40.874V71.4503H95.0862V33.1922ZM148.999 50.3632C148.999 56.6391 151.534 59.7771 156.605 59.7771C157.76 59.7771 158.84 59.6265 159.844 59.3252C160.848 59.024 161.701 58.6725 162.404 58.2709V40.3468C161.852 40.2464 161.199 40.1711 160.446 40.1209C159.693 40.0204 158.815 39.9702 157.81 39.9702C154.848 39.9702 152.639 40.9493 151.183 42.9074C149.727 44.8655 148.999 47.3507 148.999 50.3632ZM173.626 66.4798C173.626 72.9565 171.969 77.7514 168.655 80.8642C165.392 84.0273 160.321 85.6088 153.442 85.6088C151.032 85.6088 148.622 85.3829 146.212 84.931C143.803 84.5294 141.568 83.9771 139.51 83.2742L141.468 73.8603C143.225 74.5632 145.058 75.1155 146.966 75.5171C148.924 75.9188 151.133 76.1196 153.593 76.1196C156.806 76.1196 159.066 75.4167 160.371 74.0109C161.727 72.6051 162.404 70.7976 162.404 68.5885V67.1576C161.199 67.7099 159.944 68.1366 158.639 68.4379C157.384 68.6889 156.003 68.8144 154.497 68.8144C149.024 68.8144 144.832 67.2078 141.92 63.9945C139.008 60.731 137.552 56.1872 137.552 50.3632C137.552 47.4511 138.004 44.8153 138.907 42.4555C139.811 40.0455 141.116 37.987 142.823 36.28C144.581 34.5729 146.715 33.2675 149.225 32.3638C151.735 31.4099 154.572 30.9329 157.735 30.9329C159.091 30.9329 160.471 31.0082 161.877 31.1588C163.333 31.2592 164.764 31.4099 166.17 31.6107C167.576 31.8115 168.906 32.0626 170.161 32.3638C171.467 32.6148 172.622 32.891 173.626 33.1922V66.4798ZM199.288 63.618C200.393 63.618 201.447 63.5928 202.451 63.5426C203.455 63.4924 204.259 63.4171 204.861 63.3167V54.8065C204.409 54.7061 203.731 54.6057 202.828 54.5053C201.924 54.4049 201.096 54.3547 200.342 54.3547C199.288 54.3547 198.284 54.43 197.33 54.5806C196.426 54.681 195.623 54.907 194.92 55.2584C194.217 55.6099 193.665 56.0868 193.263 56.6893C192.861 57.2918 192.661 58.0449 192.661 58.9487C192.661 60.7059 193.238 61.936 194.393 62.6389C195.598 63.2916 197.23 63.618 199.288 63.618ZM198.384 30.7823C201.698 30.7823 204.459 31.1588 206.669 31.9119C208.878 32.665 210.635 33.7445 211.94 35.1503C213.296 36.5561 214.25 38.2632 214.802 40.2715C215.354 42.2798 215.631 44.514 215.631 46.9742V70.3206C214.024 70.6721 211.79 71.0738 208.928 71.5256C206.066 72.0277 202.602 72.2787 198.535 72.2787C195.974 72.2787 193.64 72.0528 191.531 71.6009C189.472 71.1491 187.69 70.4211 186.184 69.4169C184.678 68.3626 183.523 67.007 182.72 65.3501C181.916 63.6933 181.515 61.6599 181.515 59.2499C181.515 56.9404 181.966 54.9823 182.87 53.3756C183.824 51.769 185.079 50.4887 186.636 49.5348C188.192 48.5808 189.975 47.903 191.983 47.5014C193.991 47.0495 196.075 46.8236 198.234 46.8236C199.69 46.8236 200.97 46.8989 202.075 47.0495C203.229 47.1499 204.158 47.3005 204.861 47.5014V46.447C204.861 44.5391 204.284 43.0078 203.129 41.853C201.974 40.6982 199.966 40.1209 197.104 40.1209C195.196 40.1209 193.313 40.2715 191.456 40.5727C189.598 40.8238 187.991 41.2003 186.636 41.7024L185.205 32.665C185.858 32.4642 186.661 32.2634 187.615 32.0626C188.619 31.8115 189.698 31.6107 190.853 31.4601C192.008 31.2592 193.213 31.1086 194.468 31.0082C195.774 30.8576 197.079 30.7823 198.384 30.7823Z" fill="white"/>
</mask>
<g mask="url(#mask0_104_122)">
<path d="M21.5891 17.5209V88.8155H221.666V28.8175H68.031V6.97729L21.5891 17.5209Z" fill="#1D1C1C"/>
</g>
<path d="M240.996 60.4483C240.996 74.3127 187.272 91.828 121 91.828C54.7281 91.828 1.00415 74.3127 1.00415 60.4483C1.00415 60.4483 73.5805 71.2429 121 71.2429C168.42 71.2429 240.996 60.4483 240.996 60.4483Z" fill="#D0D0D0"/>
<path d="M19.1164 48.974C14.8094 42.5512 -0.000101089 42.6246 -0.000101089 42.6246C-0.000101089 42.6246 1.32 45.6063 1.25344 49.9108C1.19181 53.8964 -1.24673 55.4459 1.25344 62.0892C3.75362 68.7325 17.5725 77.5188 21.5891 77.5188C21.5891 77.5188 14.6861 67.7283 16.8194 61.4524C17.67 58.9501 20.836 62.4565 20.836 62.4565C20.836 62.4565 21.6108 52.6937 19.1164 48.974Z" fill="#0E7EBD"/>
<path d="M222.884 49.0197C227.191 42.5507 242 42.6246 242 42.6246C242 42.6246 240.68 45.6278 240.747 49.9632C240.808 53.9775 243.247 55.5381 240.747 62.2292C238.246 68.9203 224.427 77.7698 220.411 77.7698C220.411 77.7698 227.314 67.9089 225.181 61.5878C224.33 59.0675 221.164 62.5992 221.164 62.5992C221.164 62.5992 220.389 52.7661 222.884 49.0197Z" fill="#0E7EBD"/>
<path d="M148.89 50.3632C148.89 56.6391 151.426 59.7771 156.497 59.7771C157.651 59.7771 158.731 59.6265 159.735 59.3252C160.739 59.024 161.593 58.6725 162.296 58.2709V40.3468C161.743 40.2464 161.091 40.1711 160.338 40.1209C159.584 40.0204 158.706 39.9702 157.702 39.9702C154.739 39.9702 152.53 40.9493 151.074 42.9074C149.618 44.8655 148.89 47.3507 148.89 50.3632ZM173.517 66.4798C173.517 72.9565 171.86 77.7514 168.546 80.8642C165.283 84.0273 160.212 85.6088 153.334 85.6088C150.924 85.6088 148.514 85.3829 146.104 84.931C143.694 84.5294 141.46 83.9771 139.401 83.2742L141.359 73.8603C143.116 74.5632 144.949 75.1155 146.857 75.5171C148.815 75.9188 151.024 76.1196 153.484 76.1196C156.698 76.1196 158.957 75.4167 160.262 74.0109C161.618 72.6051 162.296 70.7976 162.296 68.5885V67.1576C161.091 67.7099 159.835 68.1366 158.53 68.4379C157.275 68.6889 155.894 68.8144 154.388 68.8144C148.915 68.8144 144.723 67.2078 141.811 63.9945C138.899 60.731 137.443 56.1872 137.443 50.3632C137.443 47.4511 137.895 44.8153 138.799 42.4555C139.702 40.0455 141.008 37.987 142.715 36.28C144.472 34.5729 146.606 33.2675 149.116 32.3638C151.627 31.4099 154.463 30.9329 157.626 30.9329C158.982 30.9329 160.363 31.0082 161.768 31.1588C163.224 31.2592 164.655 31.4099 166.061 31.6107C167.467 31.8115 168.798 32.0626 170.053 32.3638C171.358 32.6148 172.513 32.891 173.517 33.1922V66.4798Z" fill="#1D1C1C"/>
<path d="M86.3569 18.2089C86.3569 22.3682 82.9851 25.74 78.8258 25.74C74.6665 25.74 71.2947 22.3682 71.2947 18.2089C71.2947 16.1162 71.8693 12.0426 73.2472 10.6777C73.2472 10.6777 74.3726 13.9099 75.7576 13.746C78.1143 13.467 75.6934 8.14876 76.8733 5.93591C79.2528 1.47302 78.5469 0.3573 78.5469 0.3573C78.5469 0.3573 79.9415 0.357299 81.3362 5.09911C82.7308 9.84093 83.0097 11.5145 84.6833 12.6302C84.8514 12.7423 85.5201 11.7934 85.5201 11.7934C85.5201 11.7934 86.3569 13.467 86.3569 18.2089Z" fill="#0E7EBD"/>
</svg>
